<?xml version="1.0" standalone="no"?>
<!DOCTYPE svg PUBLIC "-//W3C//DTD SVG 20010904//EN"
 "http://www.w3.org/TR/2001/REC-SVG-20010904/DTD/svg10.dtd">
<svg version="1.0" xmlns="http://www.w3.org/2000/svg"
 width="597.000000pt" height="551.000000pt" viewBox="0 0 597.000000 551.000000"
 preserveAspectRatio="xMidYMid meet">

<g transform="translate(0.000000,551.000000) scale(0.100000,-0.100000)"
fill="#000000" stroke="none">
<path d="M2882 5503 c-7 -3 -17 -14 -23 -26 -11 -21 -10 -21 11 1 l22 23 23
-21 c26 -24 55 -19 34 6 -6 7 -15 11 -21 8 -5 -3 -14 -1 -21 4 -7 5 -18 7 -25
5z"/>
<path d="M3110 5455 c-13 -16 -7 -45 10 -45 5 0 10 7 10 16 0 13 7 15 31 10
17 -3 38 -6 46 -6 11 0 13 -11 10 -45 -2 -25 0 -48 5 -51 5 -3 4 -11 -1 -18
-6 -7 -9 -15 -6 -17 2 -3 -17 -2 -42 1 -43 5 -47 8 -56 39 -6 26 -11 31 -18
20 -5 -8 -9 -26 -9 -42 0 -21 7 -30 28 -38 31 -13 163 -4 172 11 4 6 35 9 71
8 35 -1 108 1 162 6 96 8 98 9 125 42 15 19 48 49 75 66 42 27 50 29 76 18 48
-20 83 -64 88 -112 4 -37 1 -49 -21 -75 -26 -31 -35 -73 -16 -73 22 0 68 30
93 59 51 61 44 136 -18 190 -93 81 -264 60 -365 -44 l-32 -33 -52 24 c-28 13
-77 26 -108 30 -32 4 -58 11 -58 15 0 5 -11 9 -25 9 -14 0 -25 4 -25 10 0 15
-30 27 -86 34 -39 5 -54 3 -64 -9z"/>
<path d="M2868 5389 c12 -32 62 -40 62 -10 0 12 -6 21 -12 21 -7 0 -23 3 -36
6 -20 6 -21 4 -14 -17z"/>
<path d="M2308 5282 c-51 -53 -88 -103 -88 -118 0 -10 41 34 80 88 19 25 46
53 59 61 13 8 19 17 14 20 -5 3 -34 -20 -65 -51z"/>
<path d="M3682 5274 c-7 -8 -22 -14 -32 -14 -11 0 -20 -7 -20 -15 0 -7 -6 -18
-13 -22 -17 -10 -29 -80 -16 -88 5 -4 9 10 9 30 0 27 8 44 29 66 39 38 87 39
130 3 24 -20 31 -22 31 -10 0 9 -7 16 -15 16 -9 0 -18 7 -21 15 -4 8 -18 15
-34 15 -16 0 -30 4 -32 9 -1 5 -9 3 -16 -5z"/>
<path d="M2707 5236 c-3 -7 -22 -17 -43 -21 -49 -9 -85 -27 -131 -68 -42 -36
-93 -113 -93 -138 0 -9 -7 -20 -16 -23 -10 -4 -14 -12 -10 -22 5 -14 4 -15 -9
-4 -10 8 -15 9 -15 1 0 -6 -5 -11 -11 -11 -5 0 -7 5 -3 12 4 7 3 8 -5 4 -9 -6
-9 -11 0 -22 6 -8 8 -14 5 -14 -10 0 74 -82 129 -126 44 -35 55 -39 105 -39
107 1 211 77 253 183 20 49 23 152 5 170 -7 7 -9 12 -4 12 15 0 -24 42 -75 80
-56 43 -74 48 -82 26z"/>
<path d="M2678 5233 c7 -3 16 -2 19 1 4 3 -2 6 -13 5 -11 0 -14 -3 -6 -6z"/>
<path d="M3390 5188 c-69 -12 -74 -15 -56 -34 18 -17 22 -54 5 -54 -5 0 -7 -4
-4 -10 14 -22 32 -8 43 36 15 57 36 49 29 -11 -3 -32 -1 -42 8 -39 13 5 55 11
93 13 13 0 21 5 18 10 -8 12 3 41 15 41 5 0 9 -9 9 -20 0 -11 6 -20 14 -20 11
0 13 8 9 28 -3 15 -6 37 -6 48 1 20 -4 22 -66 21 -36 -1 -86 -5 -111 -9z m143
-13 c4 -8 2 -17 -3 -20 -6 -4 -10 3 -10 14 0 25 6 27 13 6z m-65 -54 c16 -26
11 -27 -16 -2 -12 10 -22 29 -22 42 0 24 0 24 13 3 6 -12 18 -31 25 -43z m30
28 c-2 -7 -10 -4 -18 7 -9 11 -10 15 -2 10 7 -4 12 -2 13 6 0 10 2 10 6 1 2
-7 3 -18 1 -24z"/>
<path d="M3800 5158 c0 -60 -36 -91 -100 -86 -28 1 -50 0 -50 -3 0 -13 70 -17
98 -7 32 12 77 71 67 87 -3 6 -2 11 2 11 5 0 9 8 9 18 0 10 -6 19 -13 19 -8 0
-13 -14 -13 -39z"/>
<path d="M675 5150 c3 -5 -7 -8 -24 -5 -22 2 -28 0 -24 -10 3 -10 -2 -13 -17
-10 -18 4 -20 2 -9 -11 7 -9 8 -14 2 -12 -6 2 -11 0 -12 -4 -2 -13 8 -11 60
12 42 17 48 24 39 36 -14 16 -24 19 -15 4z"/>
<path d="M3610 5106 c0 -8 7 -16 15 -20 13 -4 14 -2 5 14 -13 23 -20 26 -20 6z"/>
<path d="M1540 5063 c-53 -22 -78 -50 -72 -78 2 -14 9 -25 14 -25 6 0 23 -9
38 -20 39 -28 46 -10 10 25 -27 26 -28 29 -13 51 8 13 19 21 24 18 5 -3 8 -1
7 5 -2 5 6 17 17 25 24 19 20 19 -25 -1z"/>
<path d="M3217 5039 c-31 -32 -37 -44 -37 -80 0 -48 27 -101 59 -119 19 -9 21
-8 21 15 0 14 -4 25 -10 25 -13 0 -40 54 -40 79 0 11 12 33 26 50 14 17 24 39
22 48 -3 15 -10 12 -41 -18z"/>
<path d="M665 5050 c3 -5 13 -10 21 -10 8 0 14 5 14 10 0 6 -9 10 -21 10 -11
0 -17 -4 -14 -10z"/>
<path d="M566 5005 c-3 -8 -1 -15 4 -15 6 0 10 7 10 15 0 8 -2 15 -4 15 -2 0
-6 -7 -10 -15z"/>
<path d="M650 5010 c0 -5 5 -10 11 -10 5 0 7 5 4 10 -3 6 -8 10 -11 10 -2 0
-4 -4 -4 -10z"/>
<path d="M610 4995 c0 -8 4 -15 10 -15 5 0 7 7 4 15 -4 8 -8 15 -10 15 -2 0
-4 -7 -4 -15z"/>
<path d="M1207 4948 c-11 -9 -14 -18 -7 -28 7 -12 12 -12 29 4 31 28 12 49
-22 24z"/>
<path d="M3497 4945 c-15 -9 -25 -20 -22 -25 3 -6 0 -7 -7 -5 -13 5 -68 -68
-68 -91 0 -6 19 -29 42 -50 35 -31 43 -35 46 -21 2 9 10 17 17 17 7 0 20 3 29
6 11 4 16 1 16 -10 0 -9 7 -16 15 -16 9 0 12 6 9 15 -8 21 16 19 32 -2 12 -15
13 -16 8 -2 -3 10 0 20 7 25 8 5 10 3 4 -7 -8 -12 -6 -12 8 0 16 12 22 8 18
-12 -1 -5 12 1 28 12 30 22 50 24 63 7 3 -5 20 -11 37 -12 40 -5 41 17 4 55
l-28 27 23 34 c23 35 29 70 11 70 -5 0 -7 -4 -4 -10 3 -5 1 -10 -5 -10 -6 0
-9 -4 -6 -8 3 -5 -1 -9 -8 -9 -8 0 -12 6 -9 14 4 9 0 11 -11 7 -9 -4 -14 -9
-11 -12 2 -3 -5 -11 -18 -17 -19 -10 -27 -8 -56 13 -43 32 -123 40 -164 17z
m153 -20 c15 -13 16 -20 7 -30 -16 -17 -30 -8 -24 16 3 11 1 19 -4 19 -5 0 -9
-4 -9 -9 0 -6 -9 -9 -20 -8 -11 1 -20 5 -20 9 0 4 -5 8 -11 8 -5 0 -7 -4 -4
-10 3 -5 1 -10 -5 -10 -16 0 -40 -26 -32 -35 4 -4 -8 -5 -26 -2 -17 3 -30 1
-27 -3 9 -14 -16 -23 -28 -11 -8 8 -8 11 2 11 8 0 11 6 7 15 -5 13 10 20 36
16 4 0 5 6 2 14 -14 36 118 45 156 10z m-42 -28 c9 -10 4 -13 -19 -15 -16 -1
-29 3 -29 9 0 6 7 9 15 5 8 -3 15 -1 15 4 0 13 5 12 18 -3z m-168 -57 c0 -5
-2 -10 -4 -10 -3 0 -8 5 -11 10 -3 6 -1 10 4 10 6 0 11 -4 11 -10z"/>
<path d="M2924 4942 c-43 -29 -58 -106 -24 -115 11 -3 20 -2 20 1 0 4 4 13 9
20 22 35 141 -94 141 -152 0 -9 8 -16 20 -16 17 0 19 4 14 28 -14 60 -59 126
-106 156 -38 25 -47 36 -43 52 5 23 -14 38 -31 26z"/>
<path d="M1706 4924 c-3 -9 -2 -12 5 -8 6 3 19 -3 30 -15 21 -22 39 -20 39 3
0 12 -40 36 -59 36 -5 0 -12 -7 -15 -16z"/>
<path d="M1136 4904 c-10 -7 -24 -15 -30 -17 -8 -3 -7 -8 1 -18 10 -10 17 -10
38 1 24 13 33 34 17 44 -4 2 -16 -2 -26 -10z"/>
<path d="M4885 4893 c-141 -30 -320 -111 -462 -209 l-78 -53 -18 57 c-10 31
-23 59 -28 60 -5 2 -9 10 -9 18 0 19 -5 18 -34 -11 -14 -14 -37 -25 -51 -25
-14 0 -25 -4 -25 -9 0 -5 -9 -13 -20 -16 -11 -4 -18 -10 -15 -15 3 -4 -5 -6
-17 -2 -13 3 -19 1 -15 -5 8 -12 -39 -27 -54 -17 -6 3 -4 -7 5 -24 11 -21 25
-32 43 -34 37 -4 45 -42 11 -52 -32 -8 -78 -8 -78 2 -1 4 -9 17 -20 30 l-19
23 -41 -27 c-22 -15 -39 -32 -37 -38 7 -22 71 -56 103 -56 24 0 34 -5 34 -15
0 -41 -128 4 -160 57 -11 18 -20 27 -20 20 0 -7 -4 -11 -9 -8 -5 3 -14 -1 -21
-9 -10 -12 -10 -15 0 -15 8 0 10 -3 7 -6 -4 -4 -13 -1 -22 6 -13 10 -15 9 -15
-9 0 -14 13 -27 43 -42 23 -12 82 -46 131 -76 66 -41 94 -53 112 -49 20 5 24
3 24 -18 0 -17 13 -34 43 -57 51 -40 114 -97 183 -166 77 -76 181 -103 258
-67 l34 17 -19 33 c-43 76 -101 164 -110 164 -5 0 -9 7 -9 16 0 10 -6 14 -15
10 -75 -28 -255 -41 -255 -18 0 19 59 94 125 158 128 125 318 238 500 297 95
31 223 52 259 43 26 -6 26 -7 10 -39 -27 -52 -48 -73 -69 -70 -11 2 -7 -2 10
-10 17 -8 43 -30 58 -50 28 -37 34 -53 17 -42 -6 3 -7 -1 -3 -10 4 -13 8 -14
14 -4 4 8 10 11 11 9 20 -26 43 -70 49 -95 8 -27 8 -26 5 10 -2 28 5 55 22 90
39 75 35 133 -12 228 -21 42 -47 83 -57 93 -49 44 -166 55 -294 27z m-131 -95
c-3 -4 -9 -8 -15 -8 -5 0 -9 4 -9 8 0 5 7 9 15 9 8 0 12 -4 9 -9z m-38 -10 c4
-6 3 -8 -3 -5 -6 4 -16 0 -23 -8 -6 -8 -28 -19 -48 -26 -20 -6 -45 -19 -55
-27 -14 -13 -20 -13 -30 -2 -8 9 -9 11 0 6 6 -3 15 -1 18 5 5 8 117 66 132 69
1 0 5 -5 9 -12z m-566 -132 c0 -21 -20 -30 -33 -17 -9 9 -8 14 3 21 21 14 30
12 30 -4z m34 -51 c-4 -8 -12 -15 -20 -15 -17 0 -18 17 -1 23 22 9 27 7 21 -8z"/>
<path d="M1035 4848 c-11 -6 -21 -12 -23 -13 -1 -1 0 -10 4 -19 6 -15 8 -15
35 1 42 25 27 55 -16 31z"/>
<path d="M1305 4825 c-16 -14 -40 -25 -52 -25 -13 0 -37 -12 -54 -28 -27 -24
-29 -30 -20 -54 7 -18 20 -30 38 -34 15 -4 36 -15 45 -24 21 -22 179 -80 219
-80 32 0 151 -30 159 -40 3 -4 32 -12 65 -19 33 -7 67 -14 75 -16 8 -2 19 -4
23 -4 5 -1 5 -7 1 -13 -5 -9 -2 -9 9 1 9 7 17 9 17 4 0 -5 6 -10 13 -11 113
-8 148 -8 153 -1 3 5 11 6 17 3 7 -4 9 -4 5 1 -5 5 1 14 12 22 28 19 25 63 -5
91 -13 13 -28 21 -33 18 -5 -3 -17 13 -28 35 -22 50 -61 80 -75 58 -22 -36
-28 -43 -35 -36 -4 3 -1 15 7 24 7 10 10 15 5 11 -5 -4 -20 2 -34 12 -13 11
-29 20 -34 20 -5 0 -30 14 -54 31 -39 27 -51 30 -87 25 -81 -12 -166 -5 -199
17 -15 11 -32 16 -38 12 -5 -3 -20 1 -32 9 -30 22 -48 20 -83 -9z m54 -2 c-24
-30 -43 -42 -53 -33 -13 13 22 50 47 50 17 0 18 -2 6 -17z m165 -48 c-10 -8
-23 -14 -29 -14 -5 0 -1 6 9 14 11 8 24 15 30 15 5 0 1 -7 -10 -15z m86 -60
c-35 -20 -62 -19 -36 0 11 8 29 15 40 15 19 -1 19 -2 -4 -15z m-290 -10 c-7
-8 -20 -15 -28 -15 -13 0 -12 3 4 15 25 19 40 19 24 0z m404 6 c4 -5 0 -12 -6
-15 -7 -3 -3 -3 10 0 25 6 31 -11 6 -20 -29 -11 -44 -7 -37 11 4 11 3 14 -5 9
-13 -8 -17 6 -5 17 9 10 31 9 37 -2z m126 -55 c0 -2 -7 -9 -15 -16 -13 -11
-14 -10 -9 4 5 14 24 23 24 12z"/>
<path d="M4237 4813 c-10 -9 -9 -33 1 -33 4 0 8 9 8 20 0 23 0 22 -9 13z"/>
<path d="M943 4803 c-12 -4 -19 -43 -8 -43 16 0 55 25 52 34 -4 13 -26 17 -44
9z"/>
<path d="M890 4773 c0 -5 7 -18 15 -29 13 -18 14 -18 8 4 -5 22 -23 41 -23 25z"/>
<path d="M823 4742 c-18 -9 -33 -22 -33 -29 0 -11 7 -10 37 2 45 19 44 18 35
31 -5 8 -17 7 -39 -4z"/>
<path d="M713 4692 c-50 -24 -43 -44 7 -25 38 15 49 27 33 36 -5 3 -23 -2 -40
-11z"/>
<path d="M838 4692 c-27 -17 -38 -42 -18 -42 6 0 26 7 45 14 25 11 33 19 29
30 -8 20 -21 19 -56 -2z"/>
<path d="M2222 4657 c-8 -9 -4 -15 14 -24 21 -10 23 -9 15 1 -6 7 -8 15 -5 18
3 3 1 9 -4 12 -5 3 -14 0 -20 -7z"/>
<path d="M3306 4662 c-3 -5 1 -9 9 -9 8 0 12 4 9 9 -3 4 -7 8 -9 8 -2 0 -6 -4
-9 -8z"/>
<path d="M733 4644 c-33 -14 -45 -44 -18 -44 28 0 65 24 65 42 0 21 -4 21 -47
2z"/>
<path d="M583 4637 c-25 -11 -31 -37 -9 -37 25 0 46 12 46 25 0 20 -12 24 -37
12z"/>
<path d="M3736 4633 c-8 -19 8 -38 23 -29 16 10 13 46 -3 46 -8 0 -17 -8 -20
-17z"/>
<path d="M3680 4615 c0 -14 5 -25 10 -25 6 0 10 4 10 9 0 5 3 16 6 25 4 11 1
16 -10 16 -10 0 -16 -9 -16 -25z"/>
<path d="M3624 4624 c-18 -7 -4 -46 13 -40 8 3 16 6 18 6 2 0 1 9 -2 20 -5 20
-9 22 -29 14z"/>
<path d="M3565 4611 c-6 -11 9 -23 19 -14 9 9 7 23 -3 23 -6 0 -12 -4 -16 -9z"/>
<path d="M483 4598 c-41 -20 -22 -45 21 -28 14 5 26 16 26 25 0 17 -15 18 -47
3z"/>
<path d="M4991 4550 c-33 -27 -62 -54 -65 -59 -3 -5 -26 -19 -50 -31 -24 -11
-55 -31 -68 -44 -12 -13 -33 -26 -46 -30 -41 -13 -45 -40 -11 -82 16 -21 27
-44 24 -51 -2 -8 -1 -12 4 -9 11 7 33 -18 29 -34 -4 -15 29 -22 38 -9 3 5 20
9 38 9 24 0 36 -6 44 -22 7 -15 11 -18 11 -7 1 8 -4 20 -11 27 -6 6 -10 13 -7
15 73 59 105 77 128 72 28 -6 96 29 87 44 -3 5 -19 8 -36 7 -29 -2 -28 -1 25
46 l54 49 -16 33 -16 34 -28 -26 c-16 -14 -29 -31 -29 -38 0 -8 -11 -21 -24
-29 -19 -13 -29 -14 -45 -5 -23 12 -28 49 -9 68 20 20 32 13 13 -8 -15 -16
-15 -22 -5 -35 7 -8 17 -15 22 -15 5 0 2 8 -7 17 -16 16 -14 20 34 63 l51 46
-22 21 c-40 35 -45 34 -107 -17z m-98 -194 c9 -7 17 -19 17 -27 -1 -19 -24
-49 -39 -49 -6 0 -11 -5 -11 -10 0 -7 -7 -7 -21 0 -11 7 -18 14 -15 17 3 4 1
12 -5 19 -12 15 6 58 21 49 5 -3 11 -1 15 5 8 13 16 12 38 -4z"/>
<path d="M4844 4336 c-24 -18 -11 -48 18 -44 14 2 24 11 26 24 4 26 -20 37
-44 20z"/>
<path d="M393 4567 c-18 -6 -33 -16 -33 -23 0 -20 12 -22 46 -10 22 8 30 16
25 27 -5 12 -12 13 -38 6z"/>
<path d="M2295 4570 c-3 -5 -1 -10 4 -10 6 0 11 5 11 10 0 6 -2 10 -4 10 -3 0
-8 -4 -11 -10z"/>
<path d="M1345 4552 c2 -3 -1 -12 -7 -21 -9 -11 -6 -10 9 2 16 14 23 15 29 6
5 -8 3 -10 -6 -4 -10 6 -12 4 -7 -9 4 -9 3 -15 -2 -12 -11 7 -21 -17 -21 -50
0 -13 -9 -40 -21 -60 -16 -29 -17 -35 -5 -31 13 5 14 3 4 -13 -9 -14 -14 -16
-20 -7 -5 9 -8 8 -8 -3 0 -9 6 -22 13 -29 10 -11 10 -13 0 -7 -7 4 -13 2 -13
-3 0 -6 -7 -11 -16 -11 -33 0 32 -39 94 -56 34 -10 62 -21 62 -25 0 -4 -13
-12 -30 -18 -45 -15 -37 -35 20 -50 28 -7 48 -16 46 -19 -2 -4 10 -8 26 -9 17
-1 35 -6 42 -11 24 -17 57 -3 120 54 60 53 64 59 44 64 -13 3 -30 20 -38 38
-11 24 -28 37 -68 52 -78 30 -129 36 -150 18 -28 -26 -58 -30 -76 -13 -21 22
-20 32 7 58 14 15 22 35 22 57 0 29 4 36 23 38 28 4 52 -14 52 -39 0 -13 10
-20 38 -24 20 -4 68 -15 106 -27 59 -16 73 -18 93 -7 47 25 80 -25 49 -73 -9
-14 -12 -29 -7 -37 6 -10 23 -2 69 32 34 25 58 47 55 51 -4 3 1 6 10 6 9 0 18
4 21 9 4 5 -4 7 -16 3 -21 -5 -22 -4 -9 12 12 14 12 19 2 25 -7 5 -12 11 -12
15 3 21 -1 26 -21 25 -37 -1 -228 37 -335 66 -54 15 -105 29 -113 30 -8 2 -15
4 -15 6 0 1 -10 3 -23 4 -12 1 -20 0 -17 -3z m122 -338 c-3 -3 -12 -4 -19 -1
-8 3 -5 6 6 6 11 1 17 -2 13 -5z"/>
<path d="M293 4533 c-15 -5 -18 -33 -4 -33 21 0 41 13 41 26 0 14 -14 17 -37
7z"/>
<path d="M5510 4413 c0 -3 7 -15 17 -25 9 -10 11 -18 5 -18 -16 0 -28 -90 -12
-100 22 -13 28 -72 12 -113 -11 -29 -12 -41 -3 -46 7 -5 9 -21 6 -45 -4 -22
-2 -43 5 -51 6 -8 9 -28 7 -44 -4 -23 -1 -31 9 -31 9 0 13 4 9 9 -3 5 2 17 12
26 13 13 13 19 3 25 -9 6 -8 10 5 18 27 15 25 93 -2 103 -31 11 -37 28 -18 49
15 17 15 19 -2 29 -14 8 -15 13 -5 19 14 9 5 45 -9 36 -5 -3 -9 -1 -9 5 0 5 5
13 10 16 16 10 12 28 -4 22 -10 -4 -13 -1 -9 9 3 7 8 14 12 14 4 0 8 7 8 15 0
10 -6 14 -16 10 -11 -4 -10 -1 4 15 13 14 14 20 5 20 -7 0 -10 3 -7 7 4 3 2
12 -4 20 -12 14 -29 18 -29 6z m60 -227 c0 -3 -4 -8 -10 -11 -5 -3 -10 -1 -10
4 0 6 5 11 10 11 6 0 10 -2 10 -4z"/>
<path d="M973 4377 c-27 -12 -29 -25 -7 -34 19 -7 37 9 32 30 -2 11 -8 12 -25
4z"/>
<path d="M5458 4347 c-16 -6 -28 -15 -28 -19 0 -5 14 -2 30 7 17 9 30 18 30
20 0 3 -1 5 -2 4 -2 -1 -15 -6 -30 -12z"/>
<path d="M863 4327 c-32 -17 -40 -25 -33 -37 8 -12 15 -11 54 8 32 15 44 26
40 37 -8 19 -10 19 -61 -8z"/>
<path d="M4613 4329 c3 -11 0 -19 -8 -19 -7 0 -23 -8 -35 -18 -18 -15 -20 -22
-12 -38 5 -10 15 -31 23 -46 7 -16 18 -28 26 -28 7 0 13 -4 13 -10 0 -5 11
-10 25 -10 20 0 25 5 25 24 0 28 -17 37 -45 23 -19 -9 -19 -8 -4 8 19 19 54
13 63 -11 9 -24 -12 -54 -39 -54 -31 0 -32 -17 -1 -55 23 -29 23 -29 51 -11
26 17 29 17 37 2 11 -20 28 -12 28 14 0 17 47 60 53 49 1 -2 7 -13 13 -23 6
-11 17 -22 25 -24 9 -2 10 -1 3 5 -6 4 -17 19 -24 32 -6 13 -28 44 -47 70 -20
25 -45 65 -56 88 -11 23 -24 40 -29 37 -4 -3 -8 -1 -8 3 0 5 -18 9 -41 9 -35
1 -40 -1 -36 -17z"/>
<path d="M738 4269 c-24 -12 -35 -24 -32 -33 4 -11 12 -13 31 -5 45 17 63 30
63 44 0 20 -17 18 -62 -6z"/>
<path d="M5262 4235 c-1 -20 -4 -39 -6 -43 -3 -5 4 -13 15 -20 20 -13 19 -16
23 50 1 15 -2 24 -6 22 -4 -3 -8 2 -8 10 0 33 -17 14 -18 -19z"/>
<path d="M5394 4226 c-23 -17 -17 -25 13 -17 15 4 20 10 15 18 -7 10 -12 10
-28 -1z"/>
<path d="M626 4214 c-38 -21 -21 -38 22 -22 18 7 31 17 29 22 -5 16 -20 16
-51 0z"/>
<path d="M5024 4205 c-3 -14 -3 -32 0 -41 4 -11 -6 -28 -31 -51 l-37 -35 -12
33 c-7 19 -13 28 -13 20 -1 -11 -5 -10 -20 3 -21 19 -35 8 -25 -18 3 -9 1 -16
-5 -16 -6 0 -3 -9 6 -20 10 -11 22 -20 28 -20 6 0 16 -5 23 -12 9 -9 8 -16 -6
-31 -17 -19 -16 -19 13 -4 17 8 50 33 75 54 39 34 50 39 82 35 30 -3 37 0 43
17 9 30 -2 41 -41 41 -31 0 -34 2 -24 19 18 35 12 51 -20 51 -23 0 -31 -5 -36
-25z m-109 -115 c-3 -9 1 -7 10 4 15 19 15 19 15 -3 0 -26 -31 -27 -36 -1 -1
8 -5 24 -9 35 -7 20 -7 20 9 0 9 -11 14 -26 11 -35z"/>
<path d="M5394 4190 c-12 -5 -25 -14 -30 -21 -5 -9 -2 -10 10 -6 10 4 23 7 30
7 7 0 13 7 13 15 0 8 -1 15 -1 14 -1 0 -11 -4 -22 -9z"/>
<path d="M533 4172 c-34 -16 -43 -32 -18 -32 20 0 65 22 65 31 0 16 -16 16
-47 1z"/>
<path d="M4890 4175 c-8 -9 -8 -15 -2 -15 12 0 26 19 19 26 -2 2 -10 -2 -17
-11z"/>
<path d="M1357 4121 c4 -17 9 -17 41 -8 34 11 34 12 11 18 -45 13 -57 10 -52
-10z"/>
<path d="M5390 4129 c0 -11 43 -29 68 -29 24 0 2 19 -36 29 -20 6 -32 6 -32 0z"/>
<path d="M434 4115 c-18 -13 -18 -14 4 -8 12 3 25 9 28 14 8 14 -10 11 -32 -6z"/>
<path d="M1283 4110 c-24 -10 -30 -25 -14 -35 13 -8 62 16 58 29 -5 14 -19 16
-44 6z"/>
<path d="M5270 4093 c6 -17 20 -39 31 -49 20 -18 21 -18 8 11 -7 17 -21 39
-31 50 -18 20 -18 20 -8 -12z"/>
<path d="M1138 4049 c-25 -13 -35 -24 -32 -34 5 -13 11 -12 42 1 21 9 42 18
49 21 14 6 6 33 -11 33 -6 -1 -28 -10 -48 -21z"/>
<path d="M765 4050 c-3 -6 1 -7 9 -4 18 7 21 14 7 14 -6 0 -13 -4 -16 -10z"/>
<path d="M5377 4054 c-12 -13 -8 -23 16 -35 19 -10 20 -10 11 2 -6 8 -13 20
-15 27 -3 7 -8 10 -12 6z"/>
<path d="M1023 3997 c-27 -13 -43 -28 -43 -39 0 -23 2 -23 53 3 52 27 50 25
40 42 -7 12 -14 11 -50 -6z"/>
<path d="M4725 4005 c-3 -8 -7 -22 -10 -31 -3 -8 -1 -13 3 -10 5 3 24 0 43 -6
31 -9 35 -13 31 -39 -3 -20 1 -31 12 -35 27 -11 44 2 39 30 -3 16 -10 23 -17
19 -6 -3 -8 -3 -4 2 4 4 2 17 -4 29 -10 20 -10 20 7 6 17 -14 17 -14 7 6 -11
21 -58 44 -89 44 -7 0 -16 -7 -18 -15z"/>
<path d="M5346 3995 c19 -29 29 -34 15 -6 -6 10 -7 21 -4 25 3 3 -1 6 -11 6
-15 0 -15 -2 0 -25z"/>
<path d="M1430 3950 c0 -5 4 -10 9 -10 6 0 13 5 16 10 3 6 -1 10 -9 10 -9 0
-16 -4 -16 -10z"/>
<path d="M4879 3953 c-13 -3 -10 -10 14 -35 33 -33 48 -31 74 9 13 20 13 22
-4 21 -10 0 -29 1 -43 4 -14 2 -32 3 -41 1z"/>
<path d="M5375 3950 c3 -5 11 -10 16 -10 6 0 7 5 4 10 -3 6 -11 10 -16 10 -6
0 -7 -4 -4 -10z"/>
<path d="M923 3938 c1 -7 -7 -14 -18 -14 -11 -1 -26 -2 -32 -3 -7 -1 -13 -8
-13 -16 0 -12 7 -11 44 5 24 10 47 16 51 12 3 -3 3 1 -1 11 -7 19 -35 24 -31
5z"/>
<path d="M1345 3928 c-16 -6 -32 -12 -34 -14 -5 -5 31 -94 39 -94 4 0 20 18
35 39 18 27 25 46 20 60 -7 23 -16 24 -60 9z"/>
<path d="M4680 3924 c0 -8 5 -12 10 -9 6 4 8 11 5 16 -9 14 -15 11 -15 -7z"/>
<path d="M4700 3904 c0 -12 48 -60 54 -53 2 2 -9 18 -25 34 -16 17 -29 25 -29
19z"/>
<path d="M940 3890 c-9 -6 -10 -10 -3 -10 6 0 15 5 18 10 8 12 4 12 -15 0z"/>
<path d="M1246 3885 c-9 -9 -19 -14 -24 -11 -4 2 -9 -5 -9 -17 -1 -12 -6 -23
-12 -25 -9 -3 53 -157 64 -157 3 0 19 22 35 49 l28 49 -24 56 c-31 70 -37 76
-58 56z"/>
<path d="M788 3874 c-17 -9 -25 -20 -22 -29 7 -18 15 -19 36 -2 17 13 32 47
20 47 -4 -1 -19 -7 -34 -16z"/>
<path d="M5477 3879 c7 -7 15 -10 18 -7 3 3 -2 9 -12 12 -14 6 -15 5 -6 -5z"/>
<path d="M4916 3827 c0 -29 -1 -55 -3 -59 -8 -15 -53 25 -65 58 -15 42 -33 44
-33 4 0 -30 8 -41 65 -94 17 -15 29 -31 26 -33 -9 -9 14 -43 29 -43 8 0 21
-10 29 -22 9 -12 16 -19 16 -15 0 15 -23 51 -44 70 -21 18 -21 18 11 14 18 -2
30 0 27 4 -2 4 5 5 16 2 21 -6 26 10 14 42 -6 14 -9 13 -22 -6 l-15 -22 -13
24 c-7 13 -16 45 -20 72 -9 65 -19 67 -18 4z"/>
<path d="M4646 3862 c-3 -5 1 -9 9 -9 8 0 12 4 9 9 -3 4 -7 8 -9 8 -2 0 -6 -4
-9 -8z"/>
<path d="M4720 3846 c0 -2 8 -10 18 -17 15 -13 16 -12 3 4 -13 16 -21 21 -21
13z"/>
<path d="M4970 3839 c0 -9 7 -22 15 -29 19 -16 19 0 0 26 -12 16 -14 16 -15 3z"/>
<path d="M694 3815 c-22 -18 -26 -26 -17 -35 9 -10 17 -8 37 6 26 19 33 39 18
48 -5 3 -21 -6 -38 -19z"/>
<path d="M4636 3831 c-3 -4 -17 -6 -31 -3 -16 3 -25 0 -25 -8 0 -7 7 -10 17
-6 9 4 20 1 24 -6 6 -9 11 -9 23 1 9 8 16 17 16 22 0 12 -17 12 -24 0z"/>
<path d="M1108 3789 c-21 -11 -38 -21 -38 -24 0 -10 65 -142 82 -167 12 -18
14 -26 6 -23 -7 3 -18 -5 -23 -17 -7 -16 -30 -30 -69 -44 l-59 -21 58 -38 c44
-29 61 -36 74 -28 18 11 99 168 100 195 1 21 -76 188 -86 188 -4 -1 -25 -10
-45 -21z"/>
<path d="M4665 3770 c-4 -6 -1 -17 5 -25 9 -11 9 -15 1 -15 -12 0 -15 -32 -4
-44 8 -8 34 74 27 86 -7 11 -22 10 -29 -2z"/>
<path d="M620 3755 c-6 -8 -9 -19 -5 -24 9 -15 44 9 38 26 -7 17 -18 17 -33
-2z"/>
<path d="M4730 3741 c7 -14 8 -44 2 -91 -9 -72 0 -101 17 -57 11 29 34 148 29
152 -2 1 -16 5 -31 9 -26 6 -27 5 -17 -13z"/>
<path d="M993 3727 l-42 -20 40 -79 39 -78 36 15 c20 8 40 12 45 9 16 -9 9 9
-34 92 l-42 82 -42 -21z"/>
<path d="M4840 3705 c0 -7 8 -18 17 -23 12 -7 16 -22 15 -52 -2 -35 1 -41 14
-36 8 3 24 1 35 -4 12 -7 19 -7 19 -1 0 6 11 -1 25 -15 25 -25 105 -64 131
-64 8 0 14 -4 14 -8 0 -4 13 -9 29 -10 39 -3 113 -30 84 -31 -16 -1 -25 -12
-36 -43 -26 -73 -29 -98 -12 -98 22 0 57 -39 51 -57 -5 -11 -2 -13 10 -9 8 3
24 6 34 6 11 0 22 12 29 31 15 44 14 49 -10 49 -15 0 -19 4 -15 16 3 9 6 18 6
20 0 2 7 4 16 4 11 0 14 6 9 20 -7 23 20 74 34 65 5 -3 12 2 15 11 4 10 2 13
-7 8 -9 -5 -9 -4 1 7 21 22 14 29 -32 29 -63 0 -195 27 -279 57 -40 14 -86 27
-103 30 -28 4 -33 10 -38 45 -4 21 -3 44 0 50 4 6 2 8 -4 4 -6 -3 -13 -2 -17
4 -9 15 -35 12 -35 -5z m415 -355 c3 -5 -1 -10 -10 -10 -9 0 -13 5 -10 10 3 6
8 10 10 10 2 0 7 -4 10 -10z"/>
<path d="M5033 3703 c9 -2 23 -2 30 0 6 3 -1 5 -18 5 -16 0 -22 -2 -12 -5z"/>
<path d="M5000 3689 c0 -15 58 -49 83 -49 7 1 -3 7 -22 16 -19 8 -40 22 -47
32 -11 14 -13 15 -14 1z"/>
<path d="M5088 3693 c7 -3 16 -2 19 1 4 3 -2 6 -13 5 -11 0 -14 -3 -6 -6z"/>
<path d="M888 3666 c-23 -17 -23 -27 3 -70 22 -38 82 -81 98 -71 12 7 -54 149
-72 152 -6 2 -20 -3 -29 -11z"/>
<path d="M5130 3676 c0 -2 13 -6 29 -8 17 -2 28 -1 25 4 -5 8 -54 12 -54 4z"/>
<path d="M5186 3638 c-20 -15 -31 -18 -34 -10 -2 7 -15 12 -28 12 -35 0 -20
-18 21 -26 35 -6 85 15 85 36 0 15 -12 12 -44 -12z"/>
<path d="M501 3617 c-26 -13 -79 -97 -61 -97 6 0 3 -11 -6 -25 -15 -23 -14
-26 30 -84 50 -65 53 -73 32 -90 -12 -10 -22 -7 -53 13 -53 35 -124 59 -137
46 -16 -16 -30 -12 -16 5 7 9 10 18 7 21 -3 3 -14 -7 -24 -22 -22 -34 -26
-145 -5 -152 6 -2 10 -7 7 -11 -2 -5 2 -17 10 -27 13 -18 14 -18 45 5 l32 23
49 -48 c41 -41 47 -50 36 -63 -7 -9 -22 -34 -32 -55 -15 -30 -17 -40 -7 -43 7
-3 26 -16 42 -30 17 -14 30 -22 30 -18 0 4 14 -7 32 -24 17 -17 35 -31 39 -31
7 0 5 42 -4 135 -1 11 -6 26 -10 33 -5 6 -4 12 1 12 12 0 11 33 -2 43 -7 6 -5
7 6 4 9 -3 22 2 30 11 12 15 11 16 -4 3 -10 -7 -18 -12 -19 -10 -8 38 -7 40 7
28 8 -6 14 -9 14 -6 0 3 14 2 30 -3 25 -7 32 -5 41 11 8 16 4 27 -23 61 -23
30 -28 40 -15 35 10 -4 27 -7 38 -7 12 0 19 -7 19 -20 0 -18 1 -18 30 -2 19
11 30 25 30 40 0 12 4 22 8 22 4 0 8 -12 7 -27 0 -14 5 -28 11 -30 16 -5 24
59 10 77 -9 13 -9 13 5 3 13 -11 20 -9 38 11 14 15 19 29 15 41 -5 13 -4 16 4
11 7 -4 12 -2 12 3 0 6 -4 11 -9 11 -5 0 -11 10 -13 23 -2 17 -9 21 -27 19
-21 -2 -22 0 -10 15 13 15 12 15 -7 5 -12 -6 -24 -9 -28 -7 -3 3 -3 1 1 -5 10
-11 4 -120 -6 -120 -4 0 -9 26 -10 57 -3 67 -15 85 -77 109 -43 16 -44 18 -44
60 0 67 -40 92 -99 61z m16 -522 c0 -8 -3 -13 -5 -10 -3 3 -12 -1 -21 -7 -10
-8 -9 -4 3 10 23 26 23 26 23 7z"/>
<path d="M830 3621 c0 -6 4 -13 10 -16 6 -3 7 1 4 9 -7 18 -14 21 -14 7z"/>
<path d="M4825 3520 c-3 -6 1 -7 9 -4 18 7 21 14 7 14 -6 0 -13 -4 -16 -10z"/>
<path d="M4946 3504 c-16 -43 12 -127 40 -117 6 2 14 -6 18 -19 10 -39 7 -50
-12 -44 -13 5 -18 0 -20 -20 -1 -14 2 -23 8 -19 6 3 10 -5 10 -19 0 -14 5 -28
10 -31 6 -4 7 -12 4 -18 -4 -7 -4 -9 1 -5 4 4 16 3 26 -3 14 -7 27 -5 46 5 16
8 22 15 16 16 -24 0 -15 57 13 79 l26 20 -33 71 c-19 43 -37 69 -44 66 -7 -2
-16 -1 -21 3 -5 4 -25 18 -45 30 -32 19 -37 19 -43 5z m128 -143 c23 -25 13
-41 -25 -41 -31 0 -32 2 -23 38 8 27 25 28 48 3z"/>
<path d="M4810 3455 c0 -8 4 -15 10 -15 5 0 7 7 4 15 -4 8 -8 15 -10 15 -2 0
-4 -7 -4 -15z"/>
<path d="M853 3378 c-12 -21 -11 -32 3 -46 16 -15 18 -4 4 18 -5 9 -5 19 2 27
6 7 8 13 5 13 -3 0 -9 -6 -14 -12z"/>
<path d="M875 3369 c-4 -5 0 -12 9 -15 8 -3 13 -14 11 -26 -3 -12 3 -27 13
-34 14 -12 15 -15 3 -23 -13 -8 -13 -12 0 -27 8 -10 9 -15 3 -11 -22 13 -34
-17 -19 -46 8 -15 10 -25 6 -22 -5 3 -12 -2 -15 -11 -6 -15 -4 -15 16 -1 13 8
22 22 20 31 -2 9 2 15 9 14 6 -2 16 11 22 27 5 17 14 33 19 36 18 12 4 72 -22
91 -30 22 -67 31 -75 17z"/>
<path d="M2870 3340 c-12 -16 -32 -21 -98 -26 -85 -7 -96 -11 -83 -32 9 -15
22 -16 119 -6 l74 7 -3 -154 c-3 -147 -2 -154 17 -154 18 0 19 10 24 160 l5
160 74 5 c75 5 94 17 66 40 -12 10 -29 10 -78 2 -50 -8 -65 -7 -78 4 -20 18
-21 17 -39 -6z"/>
<path d="M3380 3345 c-45 -9 -67 -10 -71 -3 -4 6 -15 8 -25 4 -11 -5 -50 -9
-89 -9 -63 -2 -70 -4 -70 -22 0 -18 6 -20 68 -17 l67 4 0 -151 0 -150 -57 -3
c-50 -3 -58 -6 -58 -23 0 -19 7 -20 150 -20 143 0 150 1 150 20 0 18 -8 20
-67 23 l-68 3 0 148 0 148 63 6 c77 7 99 15 95 35 -4 21 -13 22 -88 7z"/>
<path d="M3700 3340 c-12 -16 -32 -21 -98 -26 -86 -7 -96 -11 -82 -33 9 -15
30 -16 118 -3 36 5 65 5 68 0 3 -5 4 -74 3 -153 -3 -145 4 -182 29 -152 7 8
13 72 14 168 l3 154 74 5 c75 5 94 17 66 40 -11 9 -31 10 -80 3 -51 -8 -68 -7
-76 4 -15 17 -21 16 -39 -7z"/>
<path d="M2555 3334 c-33 -8 -78 -13 -100 -12 -62 3 -105 -10 -105 -33 0 -14
7 -19 26 -19 22 0 25 -3 20 -22 -3 -13 -6 -35 -6 -50 0 -21 -6 -29 -25 -34
-14 -3 -25 -10 -25 -14 0 -15 28 -30 44 -24 13 5 16 -2 16 -43 0 -104 22 -127
120 -127 54 0 96 19 123 56 17 22 18 30 7 43 -7 8 -21 15 -31 15 -16 0 -18 -5
-13 -25 5 -20 1 -26 -21 -35 -14 -5 -49 -10 -76 -10 -44 0 -51 3 -59 26 -6 14
-10 45 -10 68 l0 43 58 12 c63 12 102 34 102 57 0 18 -15 18 -43 0 -12 -8 -43
-18 -69 -21 l-48 -7 0 49 0 48 74 12 c82 13 146 36 146 52 0 14 -30 12 -105
-5z"/>
<path d="M794 3294 c-7 -28 19 -56 44 -46 11 4 11 6 1 13 -7 4 -17 5 -21 3 -4
-3 -8 -1 -8 5 0 5 7 14 15 18 12 7 11 10 -5 21 -17 10 -20 9 -26 -14z"/>
<path d="M2092 3304 c-55 -14 -107 -38 -116 -52 -2 -4 -1 -14 3 -21 6 -10 20
-7 60 13 l51 26 0 -139 c0 -151 9 -195 36 -184 14 5 16 17 11 89 l-6 83 34 11
c18 6 52 24 75 41 127 92 29 181 -148 133z m146 -40 c6 -2 12 -12 12 -24 0
-20 -54 -62 -97 -75 -22 -6 -23 -4 -23 54 l0 61 48 -6 c26 -3 53 -7 60 -10z"/>
<path d="M1055 3260 c-10 -11 -24 -20 -31 -20 -14 0 -59 -88 -54 -105 1 -5 3
-24 4 -41 2 -35 61 -123 74 -110 3 4 -5 16 -17 27 -30 28 -41 60 -41 119 0 41
5 55 31 85 17 19 36 35 43 35 7 0 21 7 32 15 19 14 19 14 -2 15 -11 0 -29 -9
-39 -20z"/>
<path d="M683 3213 c-16 -6 -17 -49 -3 -58 6 -4 9 -1 8 7 -2 7 3 12 10 10 8
-1 11 2 7 8 -4 6 -1 17 5 25 10 12 10 15 -1 14 -8 0 -20 -3 -26 -6z"/>
<path d="M730 3194 c0 -11 -5 -25 -12 -32 -9 -9 -9 -16 4 -28 20 -20 53 -11
44 12 -3 8 -2 12 4 9 20 -12 9 12 -15 35 -24 22 -25 22 -25 4z"/>
<path d="M5232 3185 c-16 -13 -33 -20 -38 -16 -5 5 -22 12 -39 15 -27 5 -33 2
-53 -32 -19 -30 -29 -37 -55 -37 -29 0 -32 -3 -32 -30 0 -27 3 -30 38 -33 22
-2 37 1 37 8 0 12 47 3 67 -12 15 -12 180 -2 168 10 -2 3 0 13 5 23 6 11 6 20
1 24 -11 6 -6 42 8 59 6 7 6 18 1 26 -7 11 -11 11 -24 1 -13 -11 -17 -11 -22
3 -9 23 -28 20 -62 -9z"/>
<path d="M801 3175 c0 -17 -8 -40 -16 -51 -8 -12 -11 -25 -7 -29 4 -5 1 -5 -6
-1 -7 4 -19 2 -27 -4 -8 -6 -20 -9 -27 -5 -7 4 -4 -1 6 -9 11 -9 16 -16 10
-16 -5 0 -8 -15 -8 -32 1 -18 -5 -44 -13 -57 -8 -13 -10 -20 -4 -17 6 4 11 1
11 -6 0 -7 21 19 46 57 25 39 53 79 62 90 16 18 16 19 0 6 -16 -12 -18 -11
-18 16 0 16 5 34 12 41 8 8 9 12 1 12 -6 0 -14 8 -16 18 -3 9 -5 4 -6 -13z
m-17 -104 c3 -5 -2 -15 -12 -22 -15 -12 -16 -12 -5 2 7 9 10 19 6 22 -3 4 -4
7 0 7 3 0 8 -4 11 -9z"/>
<path d="M856 3123 c-6 -14 -5 -15 5 -6 7 7 10 15 7 18 -3 3 -9 -2 -12 -12z"/>
<path d="M569 3128 c-5 -9 -5 -48 -1 -43 6 6 11 45 5 45 -2 0 -4 -1 -4 -2z"/>
<path d="M596 3082 c-2 -4 -1 -14 3 -21 6 -10 10 -9 14 3 6 16 -8 32 -17 18z"/>
<path d="M636 3069 c6 -8 10 -22 9 -32 -3 -15 -1 -16 11 -6 19 16 18 22 -8 38
-20 12 -21 12 -12 0z"/>
<path d="M4925 3030 c-3 -5 -1 -10 4 -10 6 0 11 5 11 10 0 6 -2 10 -4 10 -3 0
-8 -4 -11 -10z"/>
<path d="M4936 3015 c-24 -18 -40 -20 -30 -3 4 7 3 8 -5 4 -8 -5 -9 -12 -3
-19 5 -7 8 -24 6 -40 -2 -23 -1 -25 11 -13 8 8 20 17 27 19 9 4 7 10 -7 22
-19 16 -19 16 10 13 21 -2 30 1 30 11 0 20 -17 23 -39 6z"/>
<path d="M4990 3016 c0 -2 8 -10 18 -17 15 -13 16 -12 3 4 -13 16 -21 21 -21
13z"/>
<path d="M590 2990 c5 -10 7 -20 4 -22 -3 -3 2 -8 11 -12 13 -5 14 -2 5 14 -6
11 -9 24 -6 29 3 4 -1 8 -9 8 -10 0 -11 -5 -5 -17z"/>
<path d="M685 3001 c-7 -12 12 -24 25 -16 11 7 4 25 -10 25 -5 0 -11 -4 -15
-9z"/>
<path d="M5103 2985 c0 -8 4 -12 9 -9 5 3 6 10 3 15 -9 13 -12 11 -12 -6z"/>
<path d="M675 2961 c-3 -5 -2 -12 3 -15 5 -3 9 1 9 9 0 17 -3 19 -12 6z"/>
<path d="M4966 2942 c-2 -4 -1 -14 3 -21 6 -10 10 -9 14 3 6 16 -8 32 -17 18z"/>
<path d="M578 2933 c6 -3 10 -9 6 -14 -8 -14 2 -11 14 4 8 10 6 13 -11 14 -12
0 -16 -1 -9 -4z"/>
<path d="M651 2924 c0 -11 3 -14 6 -6 3 7 2 16 -1 19 -3 4 -6 -2 -5 -13z"/>
<path d="M702 2927 c-5 -39 -9 -54 -16 -65 -4 -6 -2 -12 3 -12 10 0 15 14 12
33 -1 4 3 16 9 27 5 10 6 21 2 24 -5 3 -9 0 -10 -7z"/>
<path d="M4999 2916 c-16 -20 -18 -20 -37 -3 -19 17 -19 17 -17 -5 4 -37 4
-38 18 -38 13 0 62 58 55 65 -1 1 -10 -7 -19 -19z"/>
<path d="M870 2895 c0 -28 31 -49 60 -40 28 9 25 40 -5 53 -40 18 -55 15 -55
-13z"/>
<path d="M664 2899 c-3 -6 -2 -15 3 -20 5 -5 9 -1 9 11 0 23 -2 24 -12 9z"/>
<path d="M994 2896 c-3 -8 -4 -27 -2 -43 4 -35 30 -37 38 -3 11 42 -22 83 -36
46z"/>
<path d="M4910 2865 c0 -8 6 -15 14 -15 10 0 13 -8 10 -25 -5 -28 10 -34 20
-9 4 9 13 14 21 10 9 -3 18 1 21 9 4 8 11 12 17 8 6 -4 7 -1 2 7 -6 10 -11 9
-21 -4 -8 -11 -14 -13 -19 -6 -3 5 -10 8 -14 6 -4 -3 -18 4 -29 15 -18 16 -22
17 -22 4z"/>
<path d="M767 2850 c-37 -11 -97 -57 -97 -74 0 -24 57 -76 82 -76 13 0 35 12
49 28 14 15 35 35 47 45 21 16 21 19 8 46 -21 40 -38 46 -89 31z"/>
<path d="M981 2734 c-62 -94 -69 -123 -42 -168 26 -42 47 -45 80 -11 23 25 23
28 15 135 l-9 109 -44 -65z m35 -56 c4 -7 3 -8 -4 -4 -16 10 -15 -7 1 -23 10
-10 8 -11 -7 -5 -16 6 -17 5 -6 -16 7 -12 8 -20 2 -16 -5 3 -12 -1 -16 -9 -3
-8 -1 -17 4 -20 5 -3 8 -15 7 -26 -1 -18 -5 -16 -29 13 -15 18 -28 36 -28 39
0 5 62 79 67 79 1 0 5 -5 9 -12z"/>
<path d="M860 2754 c-37 -63 -4 -85 64 -41 39 25 44 38 20 61 -27 28 -60 20
-84 -20z"/>
<path d="M4930 2779 c0 -5 5 -7 10 -4 16 10 11 -1 -7 -16 -10 -8 -14 -9 -10
-2 4 6 3 14 -3 18 -6 3 -10 -3 -10 -16 0 -16 5 -20 19 -16 10 2 26 0 36 -6 13
-7 16 -6 11 2 -4 6 -1 11 6 11 7 0 2 9 -12 20 -28 22 -40 25 -40 9z"/>
<path d="M5333 2761 c-6 -17 -8 -33 -3 -36 4 -2 10 -20 13 -39 3 -20 19 -55
34 -78 16 -24 37 -59 47 -78 10 -19 24 -46 32 -60 7 -14 14 -35 14 -47 0 -13
4 -23 8 -23 4 0 9 -13 10 -29 3 -40 -23 -48 -53 -15 -14 15 -29 23 -36 18 -7
-4 -9 -3 -5 4 3 6 1 14 -5 17 -21 14 -17 -2 17 -55 53 -84 43 -130 -41 -186
-27 -19 -42 -34 -33 -34 9 0 23 7 31 15 8 8 17 11 21 8 3 -4 6 -1 6 5 0 7 3
11 8 10 4 -2 35 11 70 27 42 20 60 34 57 44 -5 12 -3 12 12 0 9 -8 14 -9 10
-2 -4 6 -3 14 3 18 5 3 10 1 10 -6 0 -7 3 -10 6 -6 15 15 15 90 0 135 l-17 47
28 24 c18 16 23 26 15 29 -17 5 -103 118 -95 126 4 3 2 6 -4 6 -5 0 -22 26
-38 58 -34 70 -29 66 -53 51 -31 -20 -50 -5 -54 42 l-3 41 -12 -31z"/>
<path d="M5057 2735 c-11 -7 -26 -11 -35 -8 -15 4 -15 3 -2 -7 12 -9 7 -11
-25 -6 -22 3 -50 8 -62 12 -20 6 -23 3 -23 -25 0 -21 5 -31 15 -31 8 0 15 -5
15 -10 0 -6 -7 -13 -15 -16 -8 -4 -15 -17 -15 -30 0 -23 3 -22 47 21 26 25 51
45 55 45 4 0 19 11 34 25 14 13 30 22 35 19 5 -3 9 2 9 10 0 19 -9 20 -33 1z"/>
<path d="M3735 2660 c-54 -10 -132 -37 -152 -53 -7 -5 -13 -31 -13 -57 0 -90
-121 -293 -165 -277 -29 12 -37 58 -32 187 3 69 7 134 8 145 3 12 -2 21 -13
23 -25 5 -40 -64 -41 -183 0 -145 27 -215 83 -215 36 0 97 65 136 145 l29 60
6 -75 c3 -41 9 -83 13 -92 10 -23 32 -29 46 -13 9 10 8 19 -5 38 -13 20 -15
49 -13 158 l3 134 58 19 c32 10 60 16 63 14 3 -3 7 -90 10 -194 5 -186 12
-217 40 -194 6 6 9 31 6 66 -5 55 -4 56 19 50 60 -17 170 -59 175 -67 9 -15
41 -10 48 7 3 9 4 20 1 24 -5 9 -132 52 -200 68 l-40 9 58 27 c74 34 115 64
133 98 28 54 10 104 -47 134 -37 19 -146 26 -214 14z m188 -52 c54 -21 56 -74
5 -114 -29 -22 -126 -69 -131 -63 -2 2 -2 47 1 100 l4 96 47 -4 c25 -3 59 -9
74 -15z"/>
<path d="M2717 2628 c-11 -27 -32 -90 -73 -217 -8 -24 -12 -9 -28 88 -8 52
-19 98 -25 104 -29 29 -64 -29 -86 -143 -14 -72 -20 -66 -30 30 -10 110 -15
130 -35 130 -26 0 -28 -16 -14 -85 7 -33 18 -108 25 -167 10 -95 14 -108 31
-108 22 0 21 -2 42 115 20 104 36 169 41 163 2 -2 9 -37 15 -78 17 -109 29
-150 45 -150 23 0 41 38 76 158 18 62 33 111 35 110 1 -2 7 -55 13 -120 14
-147 20 -178 38 -185 25 -10 38 13 24 43 -6 15 -16 84 -21 153 -12 165 -18
191 -41 191 -12 0 -24 -12 -32 -32z"/>
<path d="M2980 2603 c-50 -56 -91 -153 -93 -215 -1 -66 20 -101 74 -122 100
-40 241 57 268 185 20 90 -28 149 -132 164 -26 4 -50 11 -53 16 -11 18 -33 8
-64 -28z m117 -32 c70 -9 93 -31 93 -90 -1 -93 -87 -181 -177 -181 -60 0 -83
25 -83 89 0 60 11 91 53 154 22 33 37 45 47 41 8 -4 38 -10 67 -13z"/>
<path d="M2168 2623 c-15 -4 -31 -45 -74 -194 -3 -10 -20 -19 -40 -22 -46 -8
-68 -25 -53 -43 8 -9 17 -10 36 -3 14 5 27 8 29 6 2 -2 -7 -37 -21 -77 -31
-91 -31 -102 -3 -98 16 2 24 15 35 53 39 137 38 136 134 150 l47 7 12 -74 c7
-40 17 -81 22 -90 13 -26 38 -22 38 5 0 23 -23 121 -34 148 -5 11 -1 18 13 22
13 3 21 13 21 27 0 18 -4 21 -23 16 -20 -5 -24 0 -36 42 -31 116 -50 139 -103
125z m45 -75 c8 -18 20 -50 25 -70 l10 -37 -51 -8 c-29 -5 -53 -5 -55 -1 -5
11 40 148 48 148 4 0 15 -15 23 -32z"/>
<path d="M5535 2611 c-3 -5 -2 -12 3 -15 5 -3 9 1 9 9 0 17 -3 19 -12 6z"/>
<path d="M5165 2594 c-6 -2 -8 -25 -6 -50 4 -55 -10 -68 -74 -69 -28 0 -39 -4
-37 -13 1 -8 -2 -11 -8 -7 -14 9 -137 -61 -150 -85 -15 -27 -12 -57 5 -64 8
-3 15 -16 15 -28 0 -27 35 -88 50 -88 6 0 16 -12 22 -27 20 -48 39 -63 77 -63
45 0 92 23 154 75 39 32 45 43 40 63 -13 53 44 60 105 12 34 -27 46 -25 26 5
-21 33 -75 65 -108 65 -20 0 -29 7 -37 27 -6 15 -20 44 -32 63 -13 20 -23 55
-25 83 -2 35 -7 113 -7 106 0 0 -5 -2 -10 -5z m-148 -321 c0 -7 -4 -10 -9 -7
-4 3 -8 -4 -8 -15 0 -12 -5 -21 -11 -21 -5 0 -8 4 -4 9 3 5 1 12 -5 16 -18 11
-10 30 13 30 13 0 24 -5 24 -12z"/>
<path d="M170 2490 c9 -17 10 -32 2 -59 -6 -20 -13 -45 -15 -56 -3 -11 -8 -28
-12 -37 -5 -13 4 -21 39 -37 44 -19 46 -21 44 -60 -1 -23 -2 -41 -3 -41 -9 0
-102 35 -108 40 -5 4 -3 18 4 31 10 20 7 19 -18 -6 l-30 -30 71 -27 c93 -35
119 -35 146 0 42 53 74 160 63 214 -5 24 -15 30 -87 54 -44 15 -87 29 -95 32
-11 4 -11 1 -1 -18z"/>
<path d="M5930 2470 c19 -13 30 -13 30 0 0 6 -10 10 -22 10 -19 0 -20 -2 -8
-10z"/>
<path d="M5350 2426 c0 -2 7 -7 16 -10 8 -3 12 -2 9 4 -6 10 -25 14 -25 6z"/>
<path d="M457 2375 c-18 -17 -61 -141 -54 -152 3 -5 21 -16 40 -26 32 -18 37
-18 59 -3 14 9 30 34 37 57 11 36 10 45 -11 89 -24 51 -45 62 -71 35z"/>
<path d="M4850 2251 c-15 -45 -8 -76 16 -67 8 3 13 2 9 -3 -3 -5 1 -12 7 -14
10 -4 10 -6 1 -6 -9 -1 -9 -9 -2 -31 11 -31 29 -41 29 -15 0 8 5 15 11 15 7 0
9 -9 6 -21 -7 -27 1 -49 19 -49 8 0 14 -10 14 -24 0 -29 33 -44 55 -26 21 17
19 38 -5 52 -11 7 -20 21 -20 30 0 10 -4 18 -9 18 -5 0 -18 17 -29 38 -13 25
-25 36 -37 34 -12 -3 -16 1 -12 12 7 18 -8 31 -18 16 -3 -5 -10 -10 -16 -10
-14 0 -11 22 8 42 15 17 15 20 2 34 -14 13 -17 11 -29 -25z m75 -100 c-3 -6
-11 -11 -17 -11 -6 0 -6 6 2 15 14 17 26 13 15 -4z m45 -56 c0 -8 -7 -15 -16
-15 -14 0 -14 3 -4 15 7 8 14 15 16 15 2 0 4 -7 4 -15z m40 -54 c0 -5 -7 -11
-15 -15 -15 -5 -20 5 -8 17 9 10 23 9 23 -2z"/>
<path d="M970 2250 c0 -16 5 -21 23 -18 12 2 22 10 22 18 0 8 -10 16 -22 18
-18 3 -23 -2 -23 -18z"/>
<path d="M934 2225 c-7 -18 3 -35 21 -35 21 0 28 19 15 35 -16 19 -29 19 -36
0z"/>
<path d="M630 2219 c0 -5 5 -7 10 -4 6 3 10 8 10 11 0 2 -4 4 -10 4 -5 0 -10
-5 -10 -11z"/>
<path d="M1080 2210 c-17 -10 -14 -15 17 -24 18 -6 20 -4 16 14 -6 22 -11 24
-33 10z"/>
<path d="M900 2185 c-10 -12 -8 -18 11 -34 13 -11 27 -17 31 -14 12 7 9 38 -4
51 -16 16 -23 15 -38 -3z"/>
<path d="M998 2159 c-21 -11 -38 -24 -38 -28 0 -13 65 -33 92 -29 26 3 36 41
18 64 -16 18 -27 17 -72 -7z"/>
<path d="M875 2125 c-3 -8 -7 -22 -10 -30 -2 -9 2 -15 10 -15 8 0 15 -4 15
-10 0 -5 -7 -10 -15 -10 -20 0 -19 -26 2 -34 23 -9 30 1 37 62 6 48 5 52 -14
52 -11 0 -23 -7 -25 -15z"/>
<path d="M1091 2100 c-37 -51 -44 -126 -13 -136 55 -18 72 -28 62 -34 -16 -10
-13 -20 13 -50 12 -13 15 -19 6 -12 -14 10 -18 10 -22 -2 -15 -39 70 -45 89
-7 11 21 9 32 -15 80 -16 31 -39 85 -51 121 -13 36 -27 69 -31 74 -4 4 -21
-11 -38 -34z"/>
<path d="M4809 2128 c0 -7 -2 -21 -4 -30 -3 -18 21 -45 32 -34 3 3 14 -1 24
-10 13 -12 10 -2 -9 35 -27 50 -41 63 -43 39z"/>
<path d="M940 2054 c0 -28 19 -52 51 -63 17 -6 35 -8 40 -5 18 11 9 52 -16 68
-32 21 -75 21 -75 0z"/>
<path d="M4785 2060 c-3 -5 1 -10 9 -10 9 0 16 5 16 10 0 6 -4 10 -9 10 -6 0
-13 -4 -16 -10z"/>
<path d="M1103 1934 c9 -11 15 -24 12 -27 -3 -4 -2 -5 2 -2 4 3 8 13 9 21 1 9
0 13 -3 10 -4 -3 -13 0 -22 6 -12 10 -12 7 2 -8z"/>
<path d="M4769 1927 c-38 -17 -59 -37 -59 -56 1 -14 2 -14 14 2 7 9 23 17 35
17 12 0 32 9 44 21 15 14 32 19 55 17 17 -2 32 0 32 4 0 12 -91 8 -121 -5z"/>
<path d="M4911 1934 c10 -3 20 -21 24 -42 3 -20 13 -47 21 -60 14 -21 13 -23
-12 -32 -15 -6 -37 -9 -48 -8 -16 2 -21 -3 -21 -19 -1 -32 -15 -41 -30 -20
-13 18 -14 18 -24 0 -9 -16 -12 -16 -21 -3 -8 13 -10 13 -10 -1 0 -15 -11 -17
-53 -10 -5 0 -5 6 -2 11 3 6 2 10 -3 10 -4 0 -16 17 -26 37 l-18 37 -30 -50
c-16 -27 -36 -58 -43 -69 -11 -17 -8 -30 23 -90 19 -38 38 -72 41 -75 3 -3 7
-14 9 -26 2 -15 -9 -28 -38 -48 -22 -14 -40 -29 -40 -32 0 -3 18 -26 40 -51
40 -46 60 -94 60 -147 0 -16 8 -35 18 -42 16 -13 16 -14 -3 -19 -12 -4 -31
-26 -44 -51 -21 -38 -26 -42 -40 -32 -9 7 15 -21 52 -62 37 -41 86 -90 109
-107 44 -35 95 -45 84 -17 -3 9 -6 22 -6 30 0 9 -4 13 -9 9 -5 -3 -13 0 -17 6
-4 8 -3 9 4 5 7 -4 12 -1 12 8 0 22 22 20 43 -4 14 -16 21 -18 43 -10 15 6 29
8 32 5 3 -2 12 1 20 8 13 9 14 9 8 0 -5 -9 -2 -11 8 -7 9 3 13 11 9 17 -4 6
-1 7 6 2 7 -4 23 -3 34 3 69 34 173 72 198 72 22 0 29 5 29 20 0 11 -32 85
-70 166 -51 105 -75 144 -85 140 -8 -3 -41 20 -80 55 -65 59 -68 60 -119 58
-29 -1 -58 1 -64 5 -7 4 -12 4 -12 -1 0 -4 -5 -1 -10 7 -5 8 -13 15 -17 15
-27 2 -51 19 -55 39 -4 21 -3 22 29 11 43 -15 52 -25 23 -25 -13 0 -21 -2 -18
-5 2 -3 43 0 91 6 103 12 143 3 171 -40 l20 -29 125 2 c138 1 177 13 198 59
12 26 2 47 -24 47 -7 0 -13 4 -13 8 0 5 -11 14 -24 22 -14 7 -27 23 -30 37 -7
24 -41 65 -48 57 -3 -2 -5 3 -5 10 0 8 3 15 6 14 19 -2 22 4 10 19 -9 11 -10
14 -2 9 9 -5 11 -2 7 8 -3 9 -11 13 -17 9 -6 -3 -7 -1 -3 5 11 18 -4 100 -24
124 -18 22 -48 21 -83 -4 -17 -13 -17 -16 3 -78 11 -36 25 -73 30 -82 8 -14 6
-16 -8 -11 -28 10 -72 55 -99 101 -26 44 -55 53 -61 19 -5 -27 35 -75 91 -107
61 -35 53 -37 -35 -10 -107 33 -139 80 -103 150 18 34 12 39 -52 45 -26 2 -41
2 -32 -1z m499 -364 c0 -5 -7 -10 -15 -10 -8 0 -15 5 -15 10 0 6 7 10 15 10 8
0 15 -4 15 -10z m-440 -275 c0 -8 -9 -15 -20 -15 -11 0 -20 7 -20 15 0 8 9 15
20 15 11 0 20 -7 20 -15z m-80 -29 c0 -8 -5 -18 -11 -22 -14 -8 -33 11 -25 25
10 16 36 13 36 -3z m-80 -41 c0 -8 -6 -15 -14 -15 -17 0 -28 14 -19 24 12 12
33 6 33 -9z m210 0 c0 -8 -9 -15 -20 -15 -11 0 -20 7 -20 15 0 8 9 15 20 15
11 0 20 -7 20 -15z m-80 -35 c0 -21 -24 -28 -35 -10 -8 14 3 30 21 30 8 0 14
-9 14 -20z m-80 -35 c0 -8 -7 -15 -15 -15 -8 0 -15 7 -15 15 0 8 7 15 15 15 8
0 15 -7 15 -15z m213 8 c9 -9 -13 -34 -24 -27 -14 8 -11 34 4 34 8 0 17 -3 20
-7z m-288 -43 c0 -22 -29 -18 -33 3 -3 14 1 18 15 15 10 -2 18 -10 18 -18z
m210 -1 c0 -7 -8 -15 -17 -17 -18 -3 -25 18 -11 32 10 10 28 1 28 -15z m-75
-34 c0 -8 -9 -15 -20 -15 -11 0 -20 7 -20 15 0 8 9 15 20 15 11 0 20 -7 20
-15z m213 -10 c1 -5 -6 -11 -15 -13 -11 -2 -18 3 -18 13 0 17 30 18 33 0z
m-293 -19 c0 -8 -5 -18 -11 -22 -14 -8 -33 11 -25 25 10 16 36 13 36 -3z m215
-17 c0 -7 -8 -15 -17 -17 -18 -3 -25 18 -11 32 10 10 28 1 28 -15z m-73 -37
c4 -15 1 -18 -18 -14 -13 2 -24 11 -24 18 0 21 37 17 42 -4z"/>
<path d="M1010 1823 c-8 -3 -22 -11 -30 -18 -8 -7 -46 -26 -83 -40 -43 -17
-88 -46 -121 -75 -41 -38 -55 -46 -69 -38 -12 6 -49 5 -110 -3 -80 -10 -96
-10 -123 4 -16 8 -48 18 -69 21 l-40 6 40 -13 c22 -8 58 -23 80 -34 28 -14 46
-18 57 -12 8 5 47 12 85 15 76 7 72 9 196 -64 82 -49 93 -65 101 -157 2 -24
12 -42 31 -57 36 -28 55 -76 55 -138 0 -31 4 -49 10 -45 6 4 8 -10 4 -38 -11
-78 47 -148 156 -188 l60 -22 -22 -36 c-12 -19 -23 -49 -24 -66 -1 -16 -5 -39
-9 -50 -7 -20 -6 -20 9 -1 13 16 27 19 78 17 53 -2 60 -1 50 12 -10 12 -9 23
4 56 9 22 21 39 27 38 7 -1 11 4 10 11 -2 6 3 12 10 13 6 0 3 5 -8 10 -19 8
-19 9 -1 6 18 -2 33 -37 17 -37 -4 0 -17 -18 -29 -39 -23 -40 -21 -71 4 -71
17 0 30 29 39 83 7 42 4 41 95 54 36 6 93 22 127 35 l62 25 10 -26 c5 -14 14
-43 20 -65 9 -36 8 -40 -21 -65 -46 -39 -63 -47 -55 -27 4 9 3 16 -1 17 -4 0
-16 3 -27 6 -11 2 -45 8 -75 13 -67 10 -90 18 -90 34 0 6 -5 4 -10 -4 -7 -11
-10 -11 -10 -2 0 7 -4 11 -9 8 -4 -3 5 -34 22 -68 19 -40 30 -77 29 -102 -1
-40 -20 -72 -29 -49 -9 24 -123 62 -123 41 0 -5 -6 -8 -13 -6 -6 2 -22 -7 -34
-19 l-21 -21 31 -6 c41 -8 139 -64 132 -76 -3 -5 -1 -11 5 -15 18 -11 62 -105
48 -103 -7 2 -12 -3 -11 -9 2 -7 -1 -13 -6 -13 -5 0 -11 -14 -13 -30 -4 -23 2
-37 20 -55 27 -27 19 -31 -25 -14 -28 10 -236 215 -245 240 -3 8 -9 11 -13 7
-4 -4 -1 -13 6 -21 8 -8 27 -31 43 -51 15 -20 32 -33 37 -30 5 3 9 0 9 -6 0
-13 96 -112 132 -135 15 -9 25 -21 22 -27 -8 -12 15 -68 28 -68 5 0 7 -3 5 -7
-2 -5 8 -19 21 -33 14 -14 22 -20 18 -13 -3 6 1 18 10 27 8 9 16 25 17 36 1
11 5 20 9 20 5 0 18 11 30 25 16 19 44 29 120 46 54 12 98 27 98 32 0 5 -10 6
-22 3 -42 -12 -153 -37 -193 -43 l-40 -6 19 22 c11 11 25 21 33 21 7 0 13 4
13 9 0 4 27 14 60 21 72 15 85 41 15 30 -27 -4 -42 -3 -38 3 3 5 0 7 -8 5 -20
-7 -51 11 -43 24 5 7 2 9 -8 6 -13 -5 -12 3 5 55 22 68 28 119 14 128 -18 13
19 50 60 60 32 9 40 15 36 28 -4 9 -3 13 1 9 7 -6 115 46 126 60 9 13 159 52
197 52 31 0 44 -7 70 -35 18 -19 38 -35 44 -35 16 0 38 -31 39 -53 0 -10 8
-20 18 -24 53 -19 68 -69 30 -97 -22 -15 -20 -15 16 -1 45 18 93 16 101 -3 3
-7 10 -10 16 -6 8 4 9 3 5 -4 -4 -7 -13 -12 -20 -12 -14 0 -148 -67 -156 -79
-3 -3 -30 -18 -60 -33 -81 -39 -110 -4 -34 43 19 11 34 22 34 24 0 7 -65 -18
-71 -27 -3 -6 -10 -10 -15 -10 -14 -1 -36 -9 -79 -30 l-40 -19 37 6 c30 6 38
4 47 -14 10 -18 9 -21 -9 -22 -11 -1 -24 -3 -30 -4 -5 -1 -19 -3 -30 -4 -11 0
-20 -6 -20 -12 0 -7 7 -8 18 -4 9 4 31 9 47 11 17 3 35 7 41 9 6 2 17 -5 25
-16 17 -24 28 -24 24 -2 -1 10 -7 17 -12 16 -4 -1 -16 12 -25 28 -10 16 -13
29 -9 29 12 0 36 -30 25 -30 -5 0 -1 -5 8 -11 16 -9 52 3 68 22 3 3 21 14 40
24 19 10 37 21 40 24 5 7 136 71 145 71 3 0 5 -19 5 -41 0 -36 2 -41 20 -36
10 3 20 2 22 -2 3 -7 230 -83 388 -131 41 -13 81 -28 88 -33 9 -7 12 14 12 99
l0 109 -88 23 c-48 13 -169 44 -269 69 l-183 46 0 44 0 45 33 -7 c56 -12 207
-54 342 -95 147 -45 160 -47 162 -22 1 13 -14 21 -65 35 -272 72 -275 73 -251
83 l23 11 -26 17 c-15 10 -54 20 -88 23 -51 5 -60 3 -60 -11 0 -9 5 -16 12
-16 6 0 9 -3 6 -6 -4 -3 -26 -2 -51 1 -43 7 -45 9 -50 43 -12 79 -20 104 -36
109 -9 3 -45 18 -80 34 -49 22 -67 27 -75 18 -8 -9 -8 -10 2 -5 6 4 12 2 12
-3 0 -6 -4 -11 -10 -11 -5 0 -9 -3 -9 -7 1 -5 1 -18 0 -30 -1 -20 -5 -22 -33
-17 -18 4 -42 12 -53 19 -17 11 -26 10 -55 -5 -47 -24 -105 -36 -95 -20 4 7 2
10 -6 9 -8 -2 -33 9 -56 24 -24 15 -47 27 -53 27 -6 0 -8 5 -5 10 3 6 1 10 -5
10 -7 0 -9 7 -6 16 5 12 2 15 -9 10 -18 -7 -12 7 16 39 10 11 25 38 32 60 13
35 12 45 -3 80 -18 42 -46 72 -57 61 -3 -3 -1 -6 5 -6 16 0 15 -43 -2 -83 -46
-110 -263 -186 -449 -157 -151 23 -237 106 -252 243 -6 49 -13 66 -43 99 -28
31 -40 55 -48 98 l-10 57 28 12 c18 8 38 31 53 62 14 27 26 49 28 49 1 0 34
-11 72 -25 56 -20 90 -25 168 -25 64 0 110 -5 134 -15 l35 -15 -16 23 c-9 12
-38 55 -66 96 -27 41 -57 76 -65 77 -8 1 -12 -2 -9 -7 3 -6 -5 -7 -22 -3 -19
5 -25 4 -20 -5 8 -12 -6 -15 -18 -4 -4 4 -15 8 -24 8 -9 1 -27 2 -38 3 -14 1
-26 13 -34 32 -21 51 -69 72 -120 53z m-183 -118 c0 -9 -9 -15 -21 -15 -21 1
-21 1 -2 15 24 18 23 18 23 0z m473 -740 c0 -9 -6 -12 -15 -9 -8 4 -15 10 -15
15 0 5 7 9 15 9 8 0 15 -7 15 -15z m85 -5 c3 -5 -1 -10 -10 -10 -9 0 -13 5
-10 10 3 6 8 10 10 10 2 0 7 -4 10 -10z"/>
<path d="M3122 1653 c-112 -3 -151 -7 -146 -15 5 -8 1 -9 -12 -4 -10 4 -15 4
-12 0 10 -9 -17 -34 -38 -34 -10 0 -15 -3 -11 -6 3 -3 -12 -23 -34 -43 -21
-21 -39 -43 -39 -49 0 -16 -20 -15 -20 1 -1 6 -7 -3 -15 -21 -8 -18 -21 -35
-29 -38 -20 -8 -28 -34 -16 -50 9 -9 7 -15 -7 -22 -10 -6 -31 -33 -48 -61 -16
-28 -36 -51 -45 -51 -13 0 -13 -1 0 -10 12 -8 11 -10 -7 -10 -13 0 -23 -4 -23
-10 0 -9 -129 -4 -139 5 -2 2 35 47 83 99 l87 94 -53 11 -52 12 -44 -45 c-26
-27 -41 -50 -36 -57 4 -7 3 -9 -2 -6 -5 3 -34 -20 -64 -51 -30 -31 -50 -54
-46 -50 5 4 16 2 24 -5 13 -10 15 -9 8 8 -5 14 -4 17 4 9 7 -7 7 -18 1 -35 -7
-17 -10 -19 -10 -6 -1 9 -6 17 -12 17 -6 0 -8 -7 -5 -16 3 -8 2 -13 -2 -11 -4
2 -20 -12 -37 -31 -16 -20 -23 -32 -15 -28 8 4 6 1 -4 -8 -17 -14 -20 -14 -33
2 -12 16 -13 16 -6 -2 4 -13 0 -23 -12 -32 -12 -9 -14 -14 -6 -14 8 0 11 -6 7
-15 -3 -10 1 -18 12 -22 24 -9 32 -23 32 -58 0 -29 4 -31 73 -53 69 -21 70
-22 22 -16 -27 3 -60 8 -72 11 -18 4 -23 1 -23 -16 0 -12 3 -20 8 -19 4 1 16
-1 28 -5 25 -9 267 -66 304 -72 14 -2 65 -20 115 -40 49 -19 91 -35 92 -35 2
0 3 56 3 125 0 69 -4 125 -9 125 -5 0 -21 -14 -35 -31 -14 -17 -32 -29 -40
-27 -7 2 102 127 256 293 148 160 296 320 330 358 l60 67 -68 -2 c-38 -1 -138
-4 -222 -5z m-152 -87 c0 -3 -4 -8 -10 -11 -5 -3 -10 -1 -10 4 0 6 5 11 10 11
6 0 10 -2 10 -4z m-503 -242 c-3 -3 -12 -4 -19 -1 -8 3 -5 6 6 6 11 1 17 -2
13 -5z"/>
<path d="M593 1577 c32 -18 117 -67 189 -110 72 -42 132 -76 134 -75 5 6 -18
103 -28 115 -8 9 -14 9 -29 0 -19 -12 -19 -12 2 -28 12 -9 20 -23 18 -31 -3
-12 -41 6 -159 73 -85 49 -162 88 -170 88 -8 0 11 -14 43 -32z"/>
<path d="M3388 1576 c-10 -14 -18 -28 -18 -31 0 -12 28 -34 35 -27 4 4 5 2 3
-3 -4 -14 73 -105 84 -99 7 4 10 -5 10 -26 0 -3 9 -14 21 -25 12 -12 17 -14
13 -5 -4 8 1 5 10 -7 9 -13 22 -23 30 -23 7 0 16 -5 20 -12 5 -8 2 -9 -9 -5
-16 6 -16 5 -1 -18 15 -22 33 -37 20 -17 -3 5 1 9 9 9 8 0 11 -5 8 -10 -3 -5
1 -13 8 -18 8 -4 14 -14 14 -21 0 -7 6 -14 13 -14 6 -1 14 -3 17 -4 5 -2 18
-6 31 -9 4 0 2 -7 -4 -14 -9 -10 -6 -18 11 -32 12 -11 23 -18 25 -17 1 1 9 2
17 2 9 0 12 -6 8 -17 -5 -12 -3 -14 8 -8 11 7 11 5 -1 -10 -14 -17 -13 -18 3
-12 9 4 17 2 17 -5 0 -7 5 -6 15 2 13 11 14 10 9 -5 -5 -12 -4 -16 3 -12 6 4
16 -6 22 -23 5 -17 13 -30 16 -30 3 0 3 5 -1 12 -4 7 -3 8 4 4 18 -11 14 -22
-13 -34 -22 -10 -25 -18 -25 -61 l0 -50 118 -102 c141 -122 156 -132 228 -148
59 -14 79 -9 50 12 -15 11 -10 22 54 117 40 58 76 106 81 108 18 7 9 20 -11
15 -11 -3 -20 -9 -20 -13 0 -4 -9 -18 -21 -31 -11 -13 -33 -39 -47 -58 -15
-19 -33 -40 -39 -47 -7 -7 -13 -16 -13 -21 0 -5 -9 -15 -19 -23 -11 -7 -18
-17 -15 -22 10 -16 -39 -7 -72 13 -33 20 -42 38 -27 53 11 10 16 36 18 94 2
46 9 61 49 113 46 59 59 99 32 99 -8 0 -26 -15 -40 -32 -71 -90 -96 -112 -74
-63 6 14 14 25 18 25 15 0 62 80 56 95 -9 23 -32 18 -52 -12 -26 -41 -72 -88
-79 -82 -3 3 7 18 21 32 15 15 23 27 19 27 -4 0 4 9 19 21 30 23 35 59 9 59
-19 0 -83 -55 -83 -71 0 -5 -5 -9 -11 -9 -8 0 -7 5 1 15 17 21 9 27 -13 10
-15 -11 -15 -14 -2 -25 19 -15 19 -30 2 -30 -8 0 -116 115 -241 255 -126 140
-233 255 -239 255 -5 0 -24 16 -41 35 l-31 35 -17 -24z m346 -398 c-3 -4 -11
-5 -19 -1 -21 7 -19 12 4 10 11 0 18 -5 15 -9z"/>
<path d="M256 1543 c-20 -66 -31 -137 -18 -129 5 3 13 22 17 43 4 20 15 54 26
75 23 44 24 58 5 58 -8 0 -21 -20 -30 -47z"/>
<path d="M297 1542 c-8 -21 -18 -56 -22 -78 -4 -21 -9 -47 -12 -56 -2 -10 0
-18 6 -18 6 0 11 6 11 13 0 25 29 112 44 132 11 15 10 4 -4 -43 -11 -35 -20
-78 -19 -95 1 -27 3 -24 19 25 10 32 27 74 39 93 26 45 26 45 -2 45 -13 0 -28
5 -34 11 -7 7 -15 -1 -26 -29z"/>
<path d="M762 1568 c6 -18 28 -21 28 -4 0 9 -7 16 -16 16 -9 0 -14 -5 -12 -12z"/>
<path d="M357 1493 c-17 -44 -33 -160 -17 -128 5 11 14 38 19 60 6 22 17 49
26 60 13 18 14 16 1 -20 -7 -22 -16 -62 -19 -90 -6 -49 -6 -49 8 -20 8 17 14
36 15 43 0 7 12 36 26 64 20 40 23 52 13 59 -8 5 -17 3 -21 -4 -6 -9 -8 -9 -8
1 0 27 -29 10 -43 -25z"/>
<path d="M437 1484 c-15 -29 -30 -81 -41 -144 -9 -51 9 -25 27 40 9 30 23 64
32 75 14 18 14 17 0 -19 -8 -21 -17 -64 -20 -95 l-5 -56 19 57 c10 32 29 75
41 95 13 23 18 39 11 41 -6 2 -13 2 -15 0 -3 -2 -12 6 -19 16 -14 19 -15 19
-30 -10z"/>
<path d="M487 1413 c-8 -21 -17 -63 -21 -93 l-6 -55 23 65 c13 36 28 75 35 87
15 28 15 33 -2 33 -8 0 -21 -17 -29 -37z"/>
<path d="M522 1398 c-11 -29 -22 -75 -25 -103 -6 -49 -6 -49 8 -20 8 17 14 36
15 43 0 7 11 35 25 63 24 47 26 69 5 69 -5 0 -17 -24 -28 -52z"/>
<path d="M557 1382 c-9 -21 -18 -56 -22 -78 -4 -21 -9 -48 -12 -59 -12 -47 16
4 30 55 9 30 23 64 32 75 14 18 14 17 0 -19 -8 -21 -18 -64 -20 -95 l-6 -56
19 55 c10 30 28 74 41 98 12 23 17 42 11 42 -18 0 -25 2 -41 11 -14 7 -20 1
-32 -29z"/>
<path d="M617 1333 c-8 -21 -17 -63 -21 -93 l-6 -55 23 65 c13 36 28 75 35 87
15 28 15 33 -2 33 -8 0 -21 -17 -29 -37z"/>
<path d="M655 1326 c-18 -43 -39 -145 -31 -153 2 -3 11 18 20 46 8 27 22 66
32 86 12 27 14 39 6 47 -9 9 -16 2 -27 -26z"/>
<path d="M696 1321 c-18 -34 -48 -162 -41 -170 3 -2 7 2 9 10 2 8 12 37 21 65
8 28 22 60 30 70 13 17 13 14 0 -18 -8 -20 -17 -63 -20 -95 l-6 -58 19 55 c18
52 61 142 62 129 0 -4 -9 -26 -19 -50 -10 -24 -22 -69 -25 -99 l-6 -55 23 65
c23 64 44 110 51 110 2 0 -4 -21 -14 -47 -18 -49 -35 -143 -26 -143 3 0 10 19
17 43 6 23 22 64 36 92 23 47 24 50 6 63 -29 22 -73 43 -73 35 0 -4 -6 2 -14
12 -13 18 -14 17 -30 -14z"/>
<path d="M1125 1330 c3 -5 8 -10 11 -10 2 0 4 5 4 10 0 6 -5 10 -11 10 -5 0
-7 -4 -4 -10z"/>
<path d="M4378 1284 c12 -23 34 -35 116 -65 32 -12 76 -37 98 -57 21 -19 41
-32 45 -29 14 15 -69 74 -141 101 -43 16 -89 38 -103 49 -25 20 -25 20 -15 1z"/>
<path d="M4539 1256 c11 -13 9 -14 -18 -6 -17 5 -31 7 -31 5 0 -5 58 -36 62
-35 2 1 11 -2 21 -6 27 -10 29 -1 4 26 -25 28 -60 43 -38 16z"/>
<path d="M812 1207 c-20 -54 -36 -146 -23 -131 4 5 15 34 24 64 9 31 23 65 32
75 13 18 13 16 0 -17 -8 -20 -17 -63 -20 -95 l-6 -58 24 70 c13 39 31 82 41
98 11 16 14 27 7 27 -19 0 -25 2 -43 11 -14 7 -20 0 -36 -44z"/>
<path d="M956 1249 c2 -4 -9 -9 -25 -12 -22 -5 -32 -16 -48 -54 -12 -26 -23
-73 -27 -103 l-5 -55 18 55 c17 54 48 120 55 120 2 0 -4 -21 -14 -47 -17 -47
-35 -143 -27 -143 3 0 14 30 26 68 29 89 43 107 70 92 20 -10 21 -8 21 40 0
47 -2 50 -24 48 -14 -1 -23 -5 -20 -9z"/>
<path d="M4193 1234 l-27 -27 34 -12 c32 -11 36 -10 47 9 17 29 16 34 -7 46
-17 9 -25 6 -47 -16z"/>
<path d="M4606 1238 c7 -11 32 -10 39 2 3 6 -4 9 -19 8 -13 -1 -22 -6 -20 -10z"/>
<path d="M4444 1186 c0 -19 23 -45 37 -42 4 0 17 -8 29 -19 13 -12 20 -14 18
-6 -2 7 3 16 11 19 8 3 11 0 7 -7 -5 -7 -1 -9 9 -5 26 10 13 38 -29 58 -57 28
-82 29 -82 2z"/>
<path d="M3050 1150 c-12 -8 -9 -10 13 -10 16 0 26 4 22 10 -8 12 -16 12 -35
0z"/>
<path d="M4400 1101 c-7 -20 -15 -42 -18 -49 -2 -7 11 -19 33 -28 41 -17 57
-15 61 7 1 7 7 28 14 44 13 34 13 40 3 41 -5 0 -15 3 -23 6 -47 19 -57 16 -70
-21z"/>
<path d="M3370 1100 c-19 -12 66 -12 95 0 15 6 7 9 -30 9 -27 0 -57 -4 -65 -9z"/>
<path d="M2216 1068 c3 -5 10 -6 15 -3 13 9 11 12 -6 12 -8 0 -12 -4 -9 -9z"/>
<path d="M4158 963 c-24 -32 -47 -60 -51 -61 -11 -5 12 -32 27 -32 12 0 20 8
74 78 34 42 37 72 8 72 -9 0 -35 -26 -58 -57z"/>
<path d="M3310 961 c-94 -31 -139 -73 -187 -176 -27 -58 -28 -66 -28 -222 0
-89 2 -164 5 -166 7 -7 540 30 548 38 4 4 8 64 9 133 2 142 -11 218 -51 285
-28 49 -35 56 -90 87 -43 24 -161 36 -206 21z"/>
<path d="M4890 956 c0 -2 8 -10 18 -17 15 -13 16 -12 3 4 -13 16 -21 21 -21
13z"/>
<path d="M4370 913 c0 -5 30 -14 68 -21 111 -21 302 -78 332 -100 l27 -20 -5
26 c-9 49 -38 63 -129 65 -18 0 -30 3 -28 7 2 3 -31 12 -73 19 -42 7 -86 15
-97 18 -53 12 -95 15 -95 6z"/>
<path d="M4357 828 c-44 -58 -118 -177 -133 -214 -15 -35 -15 -35 -62 -29 -74
11 -119 38 -239 145 l-113 101 0 -200 0 -199 54 -46 c52 -45 81 -61 56 -31 -7
8 -9 15 -5 15 4 0 2 7 -5 15 -19 23 6 19 43 -7 44 -32 71 -33 85 -6 9 19 11
12 11 -44 1 -38 5 -68 11 -68 6 0 10 -7 10 -15 0 -17 -2 -16 60 -20 24 -2 60
-7 80 -11 19 -5 40 -9 45 -10 6 -1 12 -3 15 -4 3 -1 19 -4 35 -6 17 -3 67 -14
111 -25 45 -10 109 -19 143 -19 l60 0 51 61 c28 33 69 87 92 120 25 34 48 57
55 55 7 -3 19 7 28 23 14 29 14 29 -21 36 -20 3 -38 5 -39 3 -2 -2 -26 -37
-53 -78 -27 -41 -60 -87 -74 -102 -45 -47 -142 -49 -350 -7 -57 12 -113 25
-126 30 -34 13 -43 51 -36 141 6 64 11 82 24 85 9 2 21 17 26 31 7 19 9 -9 6
-93 l-4 -121 26 -12 27 -12 -6 43 c-4 24 -2 86 4 138 11 87 16 101 67 187 31
51 70 109 87 129 31 35 32 35 92 30 l60 -5 -50 13 c-89 23 -121 19 -148 -17z"/>
<path d="M4444 796 c-8 -21 -7 -22 37 -30 31 -5 37 -3 42 14 4 14 0 20 -11 20
-10 0 -27 3 -39 6 -16 4 -25 1 -29 -10z"/>
<path d="M4533 773 c-3 -10 -14 -40 -25 -66 -17 -45 -17 -48 0 -53 9 -3 26 -9
37 -14 18 -7 23 -2 37 37 l16 44 -29 6 c-16 3 -32 10 -35 14 -7 12 9 11 40 -1
21 -8 27 -6 36 9 8 16 5 21 -22 30 -42 15 -48 14 -55 -6z"/>
<path d="M4626 753 c-10 -26 -7 -31 26 -35 23 -4 37 0 46 11 11 14 12 13 7 -6
-5 -18 -2 -23 14 -24 12 -1 26 -2 33 -3 19 -2 20 22 1 32 -10 6 -41 17 -70 25
-46 14 -52 14 -57 0z"/>
<path d="M4360 678 c-47 -77 -49 -83 -29 -86 11 -2 22 -2 24 0 6 6 64 168 60
168 -2 0 -27 -37 -55 -82z"/>
<path d="M4402 673 c-18 -48 -30 -88 -28 -90 2 -2 17 -8 34 -12 28 -9 31 -7
46 32 17 43 11 57 -26 57 -10 0 -18 5 -18 11 0 9 16 7 56 -8 7 -2 18 16 27 40
l15 45 -30 6 c-17 3 -34 6 -38 6 -4 0 -21 -39 -38 -87z"/>
<path d="M1159 723 c-20 -56 -20 -58 -11 -48 11 12 33 75 26 75 -2 0 -9 -12
-15 -27z"/>
<path d="M4596 674 c-11 -32 -12 -44 -3 -44 7 0 22 -3 35 -6 18 -5 25 0 38 31
8 20 14 38 12 40 -2 1 -17 7 -35 13 -31 10 -32 10 -47 -34z"/>
<path d="M4681 654 c-11 -30 -11 -38 0 -45 27 -17 45 -9 58 27 15 40 15 40
-19 49 -23 5 -27 2 -39 -31z"/>
<path d="M4737 593 c-20 -54 -35 -98 -34 -99 1 -1 14 -4 29 -8 l26 -6 6 78 c4
42 9 89 11 105 3 15 3 27 1 27 -1 0 -19 -44 -39 -97z"/>
<path d="M2660 641 c0 -17 56 -41 107 -46 27 -3 42 -3 35 1 -6 3 -10 9 -8 13
3 4 -18 13 -47 20 -29 7 -60 15 -69 18 -10 2 -18 0 -18 -6z"/>
<path d="M4467 596 c-16 -45 -16 -46 6 -46 12 0 29 -5 37 -10 12 -7 18 1 33
37 10 25 16 47 14 50 -3 2 -20 6 -39 10 -35 5 -36 4 -51 -41z"/>
<path d="M1147 609 c4 -13 8 -18 11 -10 2 7 -1 18 -6 23 -8 8 -9 4 -5 -13z"/>
<path d="M4558 577 l-16 -45 35 -7 c19 -3 36 -5 37 -3 2 2 10 22 19 46 16 40
16 42 -1 42 -9 0 -26 3 -37 6 -17 4 -23 -3 -37 -39z"/>
<path d="M4646 559 c-9 -23 -16 -43 -14 -44 2 -2 15 -6 29 -10 24 -6 28 -3 42
39 13 38 13 46 2 46 -7 0 -20 3 -28 6 -10 3 -20 -8 -31 -37z"/>
<path d="M4296 565 c-3 -9 -8 -53 -11 -98 -5 -81 -5 -82 10 -43 12 31 13 42 2
54 -10 13 -9 15 5 9 13 -4 20 4 31 38 9 24 13 46 9 49 -11 12 -40 6 -46 -9z"/>
<path d="M4348 526 c-16 -43 -16 -44 5 -50 40 -11 55 -6 61 18 3 13 8 31 12
39 3 10 -5 18 -27 26 -18 6 -33 11 -33 11 -1 0 -9 -20 -18 -44z"/>
<path d="M4447 532 c-9 -14 -67 -165 -64 -168 1 -1 18 -4 38 -8 35 -6 38 -5
48 25 16 47 14 59 -13 59 -14 0 -28 5 -31 10 -4 7 7 8 32 4 38 -6 39 -5 51 32
6 21 10 39 8 41 -9 9 -65 13 -69 5z"/>
<path d="M4524 485 c-8 -21 -13 -39 -11 -41 2 -2 17 -7 35 -10 28 -6 32 -3 47
31 8 21 14 39 13 40 -2 2 -18 6 -36 10 -30 6 -33 4 -48 -30z"/>
<path d="M4610 464 c-13 -40 -14 -39 18 -48 19 -6 25 -2 38 29 17 42 18 40
-18 49 -24 5 -28 2 -38 -30z"/>
<path d="M4681 444 c-10 -28 -10 -38 -1 -44 8 -5 6 -9 -7 -12 -11 -3 -25 -25
-36 -54 -18 -49 -18 -49 2 -29 10 11 40 51 65 90 41 62 45 70 29 77 -32 12
-39 9 -52 -28z"/>
<path d="M1875 460 c-3 -5 -1 -10 4 -10 6 0 11 5 11 10 0 6 -2 10 -4 10 -3 0
-8 -4 -11 -10z"/>
<path d="M4314 433 c-19 -45 -18 -48 20 -60 33 -10 34 -10 45 26 7 20 14 41
17 47 3 7 -9 13 -32 16 -34 4 -38 2 -50 -29z"/>
<path d="M1715 430 c-3 -5 -1 -10 4 -10 6 0 11 5 11 10 0 6 -2 10 -4 10 -3 0
-8 -4 -11 -10z"/>
<path d="M4487 392 c-17 -42 -14 -47 29 -55 29 -6 32 -4 43 35 7 22 11 41 9
43 -2 1 -17 5 -35 8 -29 6 -32 3 -46 -31z"/>
<path d="M2376 376 c36 -41 57 -52 274 -142 181 -76 246 -99 282 -99 27 0 48
3 48 7 0 4 -7 8 -15 8 -8 0 -15 5 -15 11 0 5 4 8 9 5 4 -3 8 5 7 17 -1 15 -7
21 -20 19 -11 -2 -15 1 -11 7 3 6 1 11 -5 11 -7 0 -10 -7 -6 -15 3 -8 2 -15
-3 -15 -4 0 -8 -7 -8 -15 0 -13 3 -13 19 2 21 19 24 6 4 -20 -13 -16 -16 -15
-41 18 -16 19 -30 33 -33 31 -4 -5 -194 73 -202 83 -3 3 -12 7 -20 9 -13 2
-118 45 -269 109 l-34 14 39 -45z"/>
<path d="M1818 397 c-21 -6 -38 -15 -38 -20 0 -5 6 -7 14 -4 8 3 31 9 50 13
20 3 36 10 36 15 0 11 -13 10 -62 -4z"/>
<path d="M4575 374 c-18 -42 -18 -40 16 -49 23 -6 28 -2 42 32 8 21 14 38 13
39 0 1 -13 4 -28 8 -25 6 -29 2 -43 -30z"/>
<path d="M4285 360 c-9 -15 3 -27 37 -35 21 -5 29 -3 34 9 8 21 7 22 -33 30
-19 5 -34 3 -38 -4z"/>
<path d="M4367 331 c-4 -15 2 -20 31 -25 23 -3 39 -1 44 7 12 19 10 24 -14 31
-39 10 -55 7 -61 -13z"/>
<path d="M4457 315 c-8 -20 -2 -22 81 -30 63 -7 72 -6 72 9 0 9 -6 16 -14 16
-8 0 -21 3 -30 6 -11 4 -16 1 -16 -10 0 -9 -5 -16 -11 -16 -6 0 -9 6 -6 14 3
8 -1 17 -9 20 -28 11 -62 6 -67 -9z"/>
<path d="M3500 261 l-55 -6 48 -11 c43 -10 49 -10 58 7 5 11 8 18 7 17 -2 -1
-28 -4 -58 -7z"/>
<path d="M3801 246 c-7 -8 -19 -12 -27 -9 -7 3 -17 -2 -20 -11 -3 -9 -12 -16
-19 -16 -7 0 -16 -7 -19 -16 -3 -8 -10 -13 -15 -10 -5 3 -7 -3 -4 -14 3 -11
14 -20 25 -20 27 0 17 -24 -12 -28 -15 -3 -29 4 -39 17 -16 20 -16 20 -41 0
l-25 -19 24 -20 c13 -11 31 -20 42 -20 10 0 21 -4 24 -10 8 -13 -1 -12 -47 0
-20 6 -39 17 -42 26 -3 8 -10 12 -16 9 -5 -3 -10 -1 -10 5 0 6 -5 8 -10 5 -8
-5 -8 -11 0 -20 8 -10 8 -15 -1 -21 -7 -4 -9 -3 -6 3 3 5 0 10 -8 10 -23 0 20
-52 59 -71 66 -31 183 -14 173 26 -6 20 8 25 19 7 10 -17 43 40 49 86 7 42
-12 116 -31 122 -6 2 -17 -3 -23 -11z m-51 -66 c0 -5 -7 -10 -16 -10 -8 0 -12
5 -9 10 3 6 10 10 16 10 5 0 9 -4 9 -10z m20 -24 c0 -3 -4 -8 -10 -11 -5 -3
-10 -1 -10 4 0 6 5 11 10 11 6 0 10 -2 10 -4z"/>
<path d="M3014 218 c-5 -7 -1 -9 9 -5 17 6 24 -7 10 -16 -5 -2 -2 -2 5 -1 12
3 16 -8 13 -33 -1 -7 2 -13 8 -13 5 0 8 8 7 18 -2 9 5 23 16 30 18 13 16 38
-3 26 -5 -3 -7 -10 -4 -15 4 -5 -1 -9 -10 -9 -10 0 -15 6 -12 13 6 16 -30 20
-39 5z"/>
<path d="M2984 195 c-4 -9 -4 -19 0 -22 3 -4 6 2 7 13 0 18 1 18 9 -1 7 -16 9
-17 9 -3 1 23 -18 33 -25 13z"/>
<path d="M2993 146 c0 -15 21 -16 34 -1 4 4 2 5 -4 1 -7 -4 -13 -2 -13 3 0 6
-4 11 -8 11 -5 0 -9 -6 -9 -14z"/>
</g>
</svg>
